<mxfile host="app.diagrams.net" modified="2020-11-01T13:17:18.622Z" agent="5.0 (Windows NT 10.0; Win64; x64) AppleWebKit/537.36 (KHTML, like Gecko) Chrome/86.0.4240.111 Safari/537.36" etag="ElAw5SmSth1y23Rc0hW1" version="13.8.8" type="github">
  <diagram id="7c5AL3vL01Ej-wwChA5E" name="Page-1">
    <mxGraphModel dx="782" dy="1638" grid="1" gridSize="10" guides="1" tooltips="1" connect="1" arrows="1" fold="1" page="1" pageScale="1" pageWidth="827" pageHeight="1169" math="0" shadow="0">
      <root>
        <mxCell id="0" />
        <mxCell id="1" parent="0" />
        <mxCell id="VhYxTjvQ0iPO69lBNDAt-1" value="" style="ellipse;whiteSpace=wrap;html=1;" vertex="1" parent="1">
          <mxGeometry x="300" y="40" width="140" height="70" as="geometry" />
        </mxCell>
        <mxCell id="VhYxTjvQ0iPO69lBNDAt-2" value="" style="rounded=0;whiteSpace=wrap;html=1;" vertex="1" parent="1">
          <mxGeometry x="290" y="140" width="160" height="60" as="geometry" />
        </mxCell>
        <mxCell id="VhYxTjvQ0iPO69lBNDAt-3" value="" style="rounded=0;whiteSpace=wrap;html=1;fillColor=#f8cecc;strokeColor=#b85450;" vertex="1" parent="1">
          <mxGeometry x="190" y="-160" width="360" height="160" as="geometry" />
        </mxCell>
      </root>
    </mxGraphModel>
  </diagram>
</mxfile>
